# xmcd
#
# Track frame offsets: 
#        150
#        6911
#        17259
#        31307
#        44464
#        57217
#        88266
#        99086
#        109981
#        146285
#        157884
#        187756
#        207483
#        225258
#        237993
#        262217
#        275717
#        293262
#        323449
#        339744
#
# Disc length: 4775 seconds
#
# Revision: 0
# Processed by: cddbd v1.5.2PL0 Copyright (c) Steve Scherf et al.
# Submitted via: ExactAudioCopy v1.0b3
#
DISCID=0612a514
DTITLE=Nikki Sudden - The Boy From Nowhere, Who Fell Out Of The Sky - 
DTITLE=CD1
DYEAR=1900
DGENRE=Acid Jazz
TTITLE0=Read About Seymour
TTITLE1=Real Shocks
TTITLE2=Let's Build A Car (single version)
TTITLE3=Back To The Start
TTITLE4=Channel Steamer
TTITLE5=All The Gold
TTITLE6=Chelsea Embankment
TTITLE7=Missionary Boy
TTITLE8=Big Store (original)
TTITLE9=Ratcliffe Highway
TTITLE10=Where The Rivers End
TTITLE11=Pin Your Heart
TTITLE12=When The Rain Comes Down
TTITLE13=Winter
TTITLE14=Jangle Town
TTITLE15=Back To The Coast
TTITLE16=Cupful Of Change
TTITLE17=Gallery Wharf
TTITLE18=Wedding Hotel
TTITLE19=Great Pharoah
EXTD=
EXTT0=
EXTT1=
EXTT2=
EXTT3=
EXTT4=
EXTT5=
EXTT6=
EXTT7=
EXTT8=
EXTT9=
EXTT10=
EXTT11=
EXTT12=
EXTT13=
EXTT14=
EXTT15=
EXTT16=
EXTT17=
EXTT18=
EXTT19=
PLAYORDER=
